<?xml version="1.0" encoding="utf-8"?>
<!-- Generator: Adobe Illustrator 14.0.0, SVG Export Plug-In . SVG Version: 6.00 Build 43363)  -->
<!DOCTYPE svg PUBLIC "-//W3C//DTD SVG 1.1//EN" "http://www.w3.org/Graphics/SVG/1.1/DTD/svg11.dtd">
<svg version="1.1" id="Layer_1" xmlns="http://www.w3.org/2000/svg" xmlns:xlink="http://www.w3.org/1999/xlink" x="0px" y="0px"
	 width="274.667px" height="60px" viewBox="0 0 274.667 60" enable-background="new 0 0 274.667 60" xml:space="preserve">
<g>
	<g>
		<g>
			<defs>
				<polygon id="SVGID_1_" points="193.952,58.229 207.818,58.229 227.512,15.614 220.355,0.023 				"/>
			</defs>
			<clipPath id="SVGID_2_">
				<use xlink:href="#SVGID_1_"  overflow="visible"/>
			</clipPath>
			
				<linearGradient id="SVGID_3_" gradientUnits="userSpaceOnUse" x1="-405.3557" y1="-110.5869" x2="-403.9001" y2="-110.5869" gradientTransform="matrix(23.0591 0 0 23.0591 9541.0908 2579.1582)">
				<stop  offset="0" style="stop-color:#F48120"/>
				<stop  offset="0.5189" style="stop-color:#F48120"/>
				<stop  offset="1" style="stop-color:#D86A27"/>
			</linearGradient>
			<rect x="193.952" y="0.023" clip-path="url(#SVGID_2_)" fill="url(#SVGID_3_)" width="33.56" height="58.204"/>
		</g>
	</g>
	<g>
		<polygon fill="#DCDDDE" points="26.761,6.926 26.761,58.316 20.696,58.316 20.696,6.926 4.258,6.926 4.258,1.502 43.199,1.502 
			43.199,6.926 		"/>
		<polygon fill="#DCDDDE" points="53.806,58.316 53.806,1.502 89.075,1.502 89.075,6.926 59.871,6.926 59.871,26.955 84.767,26.955 
			84.767,32.383 59.871,32.383 59.871,52.889 89.075,52.889 89.075,58.316 		"/>
		<polygon fill="#DCDDDE" points="118.355,6.926 118.355,58.316 112.291,58.316 112.291,6.926 95.852,6.926 95.852,1.502 
			134.793,1.502 134.793,6.926 		"/>
		<path fill="#DCDDDE" d="M178.035,58.316l-12.928-25.215h-13.645v25.215H145.4V1.502h21.783c9.896,0,16.838,5.984,16.838,15.8
			c0,8.298-5.026,13.723-12.369,15.239l13.486,25.775H178.035z M166.625,6.926h-15.161v20.829h15.161
			c6.623,0,11.332-3.432,11.332-10.374S173.248,6.926,166.625,6.926"/>
		<path display="none" fill="#F48120" d="M253.926,23.644c-4.477,0-8.031-3.033-8.031-7.661V1.638h4.26v14.191
			c0,2.513,1.473,4.017,3.771,4.017s3.799-1.504,3.799-4.017V1.638h4.23v14.345C261.955,20.61,258.4,23.644,253.926,23.644"/>
		<rect x="266.711" y="1.638" display="none" fill="#F48120" width="4.26" height="21.822"/>
		<g>
			<path fill="#F38020" d="M247.405,23.543c-2.332,0-3.935-0.604-5.537-2.208l2.781-2.753c0.696,0.696,1.363,1.211,2.756,1.211
				c2.057,0,3.387-1.211,3.387-3.691V1.82h4.206v14.461C254.997,21.031,251.398,23.543,247.405,23.543"/>
			<path fill="#F38020" d="M265.681,23.543c-3.27,0-5.75-0.695-7.866-2.843l2.723-2.725c1.36,1.364,3.207,1.817,5.202,1.817
				c2.48,0,3.813-0.939,3.813-2.662c0-0.758-0.213-1.394-0.665-1.817c-0.424-0.392-0.909-0.605-1.908-0.756l-2.602-0.362
				c-1.846-0.272-3.207-0.847-4.175-1.785c-1.027-1.03-1.544-2.421-1.544-4.236c0-3.843,2.846-6.537,7.504-6.537
				c2.966,0,5.113,0.728,6.959,2.511l-2.663,2.632c-1.36-1.299-2.994-1.482-4.417-1.482c-2.239,0-3.328,1.241-3.328,2.725
				c0,0.544,0.183,1.118,0.638,1.541c0.421,0.393,1.116,0.727,1.995,0.848l2.542,0.363c1.968,0.272,3.208,0.816,4.114,1.664
				c1.15,1.089,1.664,2.662,1.664,4.57C273.667,21.183,270.188,23.543,265.681,23.543"/>
		</g>
	</g>
	<g>
		<g>
			<defs>
				<polygon id="SVGID_4_" points="221.877,34.26 232.789,58.316 247.141,58.316 228.988,18.855 				"/>
			</defs>
			<clipPath id="SVGID_5_">
				<use xlink:href="#SVGID_4_"  overflow="visible"/>
			</clipPath>
			
				<linearGradient id="SVGID_6_" gradientUnits="userSpaceOnUse" x1="-399.4685" y1="-107.498" x2="-398.0129" y2="-107.498" gradientTransform="matrix(17.3584 0 0 17.3584 7156.0098 1904.5894)">
				<stop  offset="0" style="stop-color:#ADACAC"/>
				<stop  offset="0.072" style="stop-color:#B8B7B7"/>
				<stop  offset="0.1535" style="stop-color:#C1C1C1"/>
				<stop  offset="0.2499" style="stop-color:#C8C8C8"/>
				<stop  offset="0.369" style="stop-color:#CCCCCD"/>
				<stop  offset="0.536" style="stop-color:#D0D1D2"/>
				<stop  offset="1" style="stop-color:#D1D3D4"/>
			</linearGradient>
			<rect x="221.877" y="18.855" clip-path="url(#SVGID_5_)" fill="url(#SVGID_6_)" width="25.264" height="39.461"/>
		</g>
	</g>
</g>
</svg>
